# xmcd
#
# Track frame offsets: 
#        150
#        10157
#        20632
#        28450
#        44507
#        52617
#        62265
#        75515
#        83800
#        94980
#
# Disc length: 1416 seconds
#
# Revision: 0
# Processed by: cddbd v1.5.2PL0 Copyright (c) Steve Scherf et al.
# Submitted via: ExactAudioCopy v1.0b1
#
DISCID=7005860a
DTITLE=Buddy Davis - Buddy Davis Sings...Grand Old Gospel Hymns
DYEAR=1999
DGENRE=Gospel
TTITLE0=Where Could I Go
TTITLE1=The Old Account
TTITLE2=Victory In Jesus
TTITLE3=If We Never Meet Again
TTITLE4=I Saw The Light
TTITLE5=Just A Little Talk With Jesus
TTITLE6=Farther Along
TTITLE7=When The Saints Go Marching In
TTITLE8=What A Day That Will Be
TTITLE9=Jesus Hold My Hand
EXTD=
EXTT0=
EXTT1=
EXTT2=
EXTT3=
EXTT4=
EXTT5=
EXTT6=
EXTT7=
EXTT8=
EXTT9=
PLAYORDER=
